<svg width="39" height="40" viewBox="0 0 39 40" fill="none" xmlns="http://www.w3.org/2000/svg">
<rect width="39" height="40" rx="10" fill="#D6ECF7"/>
<path d="M21.3867 27.8179H17.6133C17.5371 27.8179 17.4641 27.8496 17.4103 27.906C17.3565 27.9624 17.3262 28.0389 17.3262 28.1187V29.3238C17.3261 29.3634 17.3335 29.4025 17.3479 29.4391C17.3623 29.4756 17.3835 29.5088 17.4101 29.5368C17.4368 29.5648 17.4685 29.587 17.5033 29.6021C17.5382 29.6173 17.5755 29.6251 17.6133 29.6251H21.3867C21.4629 29.6251 21.5359 29.5934 21.5898 29.537C21.6436 29.4806 21.6738 29.4041 21.6738 29.3244V28.1192C21.6739 28.0796 21.6665 28.0405 21.6521 28.0039C21.6377 27.9674 21.6166 27.9341 21.5899 27.9062C21.5633 27.8782 21.5316 27.856 21.4967 27.8408C21.4619 27.8257 21.4245 27.8179 21.3867 27.8179ZM21.0996 29.0236H17.9004V28.4199H21.0996V29.0236Z" fill="#111576"/>
<path d="M25.1191 10.375H13.8809C13.8048 10.375 13.7319 10.4067 13.6781 10.463C13.6242 10.5193 13.5939 10.5956 13.5938 10.6753V26.7435C13.5938 26.8233 13.6241 26.8998 13.6779 26.9562C13.7317 27.0125 13.8047 27.0443 13.8809 27.0443H25.1191C25.1953 27.0443 25.2683 27.0126 25.3222 26.9562C25.376 26.8998 25.4062 26.8233 25.4062 26.7435V10.6753C25.4061 10.5956 25.3758 10.5192 25.322 10.4629C25.2682 10.4066 25.1952 10.375 25.1191 10.375ZM22.4695 10.9766L22.1767 11.8579H16.9665L16.5762 10.9766H22.4695ZM24.832 26.4433H14.168V10.9766H15.9431L16.5228 12.2854C16.5458 12.3374 16.5826 12.3814 16.6288 12.4123C16.6749 12.4431 16.7285 12.4595 16.7833 12.4595H22.3809C22.4406 12.4595 22.4987 12.4401 22.5473 12.4039C22.5959 12.3677 22.6326 12.3166 22.6521 12.2575L23.0775 10.9766H24.832V26.4433Z" fill="#111576"/>
<path d="M25.4473 9H13.5527C13.2157 9.00041 12.8926 9.14081 12.6543 9.39041C12.4159 9.64002 12.2818 9.97845 12.2812 10.3315V29.6675C12.2815 30.0207 12.4155 30.3594 12.6539 30.6092C12.8923 30.8591 13.2156 30.9996 13.5527 31H25.4473C25.7844 30.9996 26.1075 30.8591 26.3459 30.6094C26.5843 30.3597 26.7184 30.0211 26.7188 29.668V10.3315C26.7182 9.97845 26.5841 9.64002 26.3457 9.39041C26.1074 9.14081 25.7843 9.00041 25.4473 9V9ZM26.1445 29.668C26.1443 29.8616 26.0708 30.0473 25.9401 30.1842C25.8094 30.3212 25.6321 30.3982 25.4473 30.3984H13.5527C13.3679 30.3982 13.1906 30.3212 13.0599 30.1842C12.9292 30.0473 12.8557 29.8616 12.8555 29.668V10.3315C12.8558 10.1379 12.9294 9.95241 13.0601 9.81558C13.1908 9.67875 13.368 9.60179 13.5527 9.60156H25.4473C25.6321 9.60179 25.8094 9.67882 25.9401 9.81576C26.0708 9.9527 26.1443 10.1384 26.1445 10.332V29.668Z" fill="#111576"/>
<path d="M22.4107 17.1418H22.139V16.0246C22.1389 15.9801 22.1295 15.9362 22.1113 15.896C22.0931 15.8558 22.0667 15.8203 22.0338 15.7921C22.001 15.7639 21.9626 15.7437 21.9214 15.7329C21.8802 15.7221 21.8372 15.721 21.7956 15.7297L15.9714 16.9471C15.9062 16.9607 15.8476 16.9975 15.8055 17.0513C15.7634 17.1052 15.7404 17.1726 15.7404 17.2422V19.7056C15.7405 19.7751 15.7636 19.8424 15.8058 19.8961C15.8479 19.9498 15.9065 19.9865 15.9715 20.0001L16.6834 20.1489L15.6944 21.7473C15.6664 21.7928 15.6506 21.8452 15.6486 21.8993C15.6467 21.9533 15.6587 22.0069 15.6833 22.0544C15.708 22.1019 15.7444 22.1415 15.7888 22.1692C15.8332 22.1968 15.8838 22.2114 15.9354 22.2114H17.4222C17.4706 22.2114 17.5183 22.1986 17.5607 22.1741C17.6031 22.1496 17.6389 22.1142 17.6648 22.0713L18.5852 20.5463L21.7956 21.2166C21.8372 21.2249 21.88 21.2236 21.9211 21.2127C21.9622 21.2017 22.0004 21.1815 22.0332 21.1533C22.0659 21.1252 22.0924 21.0899 22.1107 21.0498C22.129 21.0098 22.1386 20.966 22.139 20.9217V19.8045H22.4107C22.6608 19.8042 22.9006 19.7 23.0774 19.5147C23.2543 19.3294 23.3538 19.0782 23.354 18.8162V18.1287C23.3534 17.8669 23.2537 17.6161 23.0769 17.4311C22.9001 17.2461 22.6605 17.1421 22.4107 17.1418ZM16.3147 17.4888L19.555 16.8115V20.1362L16.3147 19.4588V17.4888ZM17.264 21.6105H16.4636L17.2893 20.2761L17.9821 20.4208L17.264 21.6105ZM21.5647 20.5563L20.1292 20.2562V16.6915L21.5647 16.3907V20.5563ZM22.7798 18.8176C22.7797 18.9201 22.7408 19.0184 22.6716 19.0909C22.6024 19.1634 22.5085 19.2042 22.4107 19.2043H22.139V17.7434H22.4107C22.5085 17.7434 22.6024 17.7842 22.6716 17.8567C22.7408 17.9292 22.7797 18.0275 22.7798 18.1301V18.8176Z" fill="#111576"/>
</svg>
