<svg width="258" height="124" viewBox="0 0 258 124" fill="none" xmlns="http://www.w3.org/2000/svg">
<ellipse cx="251.861" cy="4.75246" rx="4.75246" ry="5.1485" transform="rotate(90 251.861 4.75246)" fill="#1DC0AD" fill-opacity="0.25"/>
<ellipse cx="227.148" cy="4.75246" rx="4.75246" ry="5.1485" transform="rotate(90 227.148 4.75246)" fill="#1DC0AD" fill-opacity="0.25"/>
<ellipse cx="202.436" cy="4.75246" rx="4.75246" ry="5.1485" transform="rotate(90 202.436 4.75246)" fill="#1DC0AD" fill-opacity="0.25"/>
<ellipse cx="177.723" cy="4.75246" rx="4.75246" ry="5.1485" transform="rotate(90 177.723 4.75246)" fill="#1DC0AD" fill-opacity="0.25"/>
<ellipse cx="153.01" cy="4.75246" rx="4.75246" ry="5.1485" transform="rotate(90 153.01 4.75246)" fill="#1DC0AD" fill-opacity="0.25"/>
<ellipse cx="251.861" cy="27.5642" rx="4.75246" ry="5.1485" transform="rotate(90 251.861 27.5642)" fill="#1DC0AD" fill-opacity="0.25"/>
<ellipse cx="227.148" cy="27.5642" rx="4.75246" ry="5.1485" transform="rotate(90 227.148 27.5642)" fill="#1DC0AD" fill-opacity="0.25"/>
<ellipse cx="202.436" cy="27.5642" rx="4.75246" ry="5.1485" transform="rotate(90 202.436 27.5642)" fill="#1DC0AD" fill-opacity="0.25"/>
<ellipse cx="177.723" cy="27.5642" rx="4.75246" ry="5.1485" transform="rotate(90 177.723 27.5642)" fill="#1DC0AD" fill-opacity="0.25"/>
<ellipse cx="153.01" cy="27.5642" rx="4.75246" ry="5.1485" transform="rotate(90 153.01 27.5642)" fill="#1DC0AD" fill-opacity="0.25"/>
<ellipse cx="251.861" cy="50.376" rx="4.75246" ry="5.1485" transform="rotate(90 251.861 50.376)" fill="#1DC0AD" fill-opacity="0.25"/>
<ellipse cx="227.148" cy="50.376" rx="4.75246" ry="5.1485" transform="rotate(90 227.148 50.376)" fill="#1DC0AD" fill-opacity="0.25"/>
<ellipse cx="202.436" cy="50.376" rx="4.75246" ry="5.1485" transform="rotate(90 202.436 50.376)" fill="#1DC0AD" fill-opacity="0.25"/>
<ellipse cx="177.723" cy="50.376" rx="4.75246" ry="5.1485" transform="rotate(90 177.723 50.376)" fill="#1DC0AD" fill-opacity="0.25"/>
<ellipse cx="153.01" cy="50.376" rx="4.75246" ry="5.1485" transform="rotate(90 153.01 50.376)" fill="#1DC0AD" fill-opacity="0.25"/>
<ellipse cx="251.861" cy="73.1878" rx="4.75246" ry="5.1485" transform="rotate(90 251.861 73.1878)" fill="#1DC0AD" fill-opacity="0.25"/>
<ellipse cx="227.148" cy="73.1878" rx="4.75246" ry="5.1485" transform="rotate(90 227.148 73.1878)" fill="#1DC0AD" fill-opacity="0.25"/>
<ellipse cx="202.436" cy="73.1878" rx="4.75246" ry="5.1485" transform="rotate(90 202.436 73.1878)" fill="#1DC0AD" fill-opacity="0.25"/>
<ellipse cx="177.723" cy="73.1878" rx="4.75246" ry="5.1485" transform="rotate(90 177.723 73.1878)" fill="#1DC0AD" fill-opacity="0.25"/>
<ellipse cx="153.01" cy="73.1878" rx="4.75246" ry="5.1485" transform="rotate(90 153.01 73.1878)" fill="#1DC0AD" fill-opacity="0.25"/>
<ellipse cx="251.861" cy="95.9998" rx="4.75246" ry="5.1485" transform="rotate(90 251.861 95.9998)" fill="#1DC0AD" fill-opacity="0.25"/>
<ellipse cx="227.148" cy="95.9998" rx="4.75246" ry="5.1485" transform="rotate(90 227.148 95.9998)" fill="#1DC0AD" fill-opacity="0.25"/>
<ellipse cx="202.436" cy="95.9998" rx="4.75246" ry="5.1485" transform="rotate(90 202.436 95.9998)" fill="#1DC0AD" fill-opacity="0.25"/>
<ellipse cx="128.297" cy="4.75246" rx="4.75246" ry="5.1485" transform="rotate(90 128.297 4.75246)" fill="#1DC0AD" fill-opacity="0.25"/>
<ellipse cx="103.584" cy="4.75246" rx="4.75246" ry="5.1485" transform="rotate(90 103.584 4.75246)" fill="#1DC0AD" fill-opacity="0.25"/>
<ellipse cx="128.297" cy="27.5642" rx="4.75246" ry="5.1485" transform="rotate(90 128.297 27.5642)" fill="#1DC0AD" fill-opacity="0.25"/>
<ellipse cx="103.584" cy="27.5642" rx="4.75246" ry="5.1485" transform="rotate(90 103.584 27.5642)" fill="#1DC0AD" fill-opacity="0.25"/>
<ellipse cx="128.297" cy="50.376" rx="4.75246" ry="5.1485" transform="rotate(90 128.297 50.376)" fill="#1DC0AD" fill-opacity="0.25"/>
<ellipse cx="103.584" cy="50.376" rx="4.75246" ry="5.1485" transform="rotate(90 103.584 50.376)" fill="#1DC0AD" fill-opacity="0.25"/>
<ellipse cx="128.297" cy="73.1878" rx="4.75246" ry="5.1485" transform="rotate(90 128.297 73.1878)" fill="#1DC0AD" fill-opacity="0.25"/>
<ellipse cx="103.584" cy="73.1878" rx="4.75246" ry="5.1485" transform="rotate(90 103.584 73.1878)" fill="#1DC0AD" fill-opacity="0.25"/>
<ellipse cx="128.297" cy="95.9998" rx="4.75246" ry="5.1485" transform="rotate(90 128.297 95.9998)" fill="#1DC0AD" fill-opacity="0.25"/>
<ellipse cx="103.584" cy="95.9998" rx="4.75246" ry="5.1485" transform="rotate(90 103.584 95.9998)" fill="#1DC0AD" fill-opacity="0.25"/>
<ellipse cx="177.723" cy="95.9998" rx="4.75246" ry="5.1485" transform="rotate(90 177.723 95.9998)" fill="#1DC0AD" fill-opacity="0.25"/>
<ellipse cx="153.01" cy="95.9998" rx="4.75246" ry="5.1485" transform="rotate(90 153.01 95.9998)" fill="#1DC0AD" fill-opacity="0.25"/>
<ellipse cx="251.861" cy="118.812" rx="4.75246" ry="5.1485" transform="rotate(90 251.861 118.812)" fill="#1DC0AD" fill-opacity="0.25"/>
<ellipse cx="227.148" cy="118.812" rx="4.75246" ry="5.1485" transform="rotate(90 227.148 118.812)" fill="#1DC0AD" fill-opacity="0.25"/>
<ellipse cx="202.436" cy="118.812" rx="4.75246" ry="5.1485" transform="rotate(90 202.436 118.812)" fill="#1DC0AD" fill-opacity="0.25"/>
<ellipse cx="177.723" cy="118.812" rx="4.75246" ry="5.1485" transform="rotate(90 177.723 118.812)" fill="#1DC0AD" fill-opacity="0.25"/>
<ellipse cx="153.01" cy="118.812" rx="4.75246" ry="5.1485" transform="rotate(90 153.01 118.812)" fill="#1DC0AD" fill-opacity="0.25"/>
<ellipse cx="128.297" cy="118.812" rx="4.75246" ry="5.1485" transform="rotate(90 128.297 118.812)" fill="#1DC0AD" fill-opacity="0.25"/>
<ellipse cx="103.584" cy="118.812" rx="4.75246" ry="5.1485" transform="rotate(90 103.584 118.812)" fill="#1DC0AD" fill-opacity="0.25"/>
<ellipse cx="78.871" cy="4.75271" rx="4.75246" ry="5.1485" transform="rotate(90 78.871 4.75271)" fill="#1DC0AD" fill-opacity="0.25"/>
<ellipse cx="54.1581" cy="4.75246" rx="4.75246" ry="5.1485" transform="rotate(90 54.1581 4.75246)" fill="#1DC0AD" fill-opacity="0.25"/>
<ellipse cx="78.871" cy="27.5642" rx="4.75246" ry="5.1485" transform="rotate(90 78.871 27.5642)" fill="#1DC0AD" fill-opacity="0.25"/>
<ellipse cx="54.1581" cy="27.5642" rx="4.75246" ry="5.1485" transform="rotate(90 54.1581 27.5642)" fill="#1DC0AD" fill-opacity="0.25"/>
<ellipse cx="78.871" cy="50.376" rx="4.75246" ry="5.1485" transform="rotate(90 78.871 50.376)" fill="#1DC0AD" fill-opacity="0.25"/>
<ellipse cx="54.1581" cy="50.376" rx="4.75246" ry="5.1485" transform="rotate(90 54.1581 50.376)" fill="#1DC0AD" fill-opacity="0.25"/>
<ellipse cx="78.871" cy="73.1878" rx="4.75246" ry="5.1485" transform="rotate(90 78.871 73.1878)" fill="#1DC0AD" fill-opacity="0.25"/>
<ellipse cx="54.1581" cy="73.1878" rx="4.75246" ry="5.1485" transform="rotate(90 54.1581 73.1878)" fill="#1DC0AD" fill-opacity="0.25"/>
<ellipse cx="78.871" cy="95.9998" rx="4.75246" ry="5.1485" transform="rotate(90 78.871 95.9998)" fill="#1DC0AD" fill-opacity="0.25"/>
<ellipse cx="54.1581" cy="95.9998" rx="4.75246" ry="5.1485" transform="rotate(90 54.1581 95.9998)" fill="#1DC0AD" fill-opacity="0.25"/>
<ellipse cx="78.871" cy="118.812" rx="4.75246" ry="5.1485" transform="rotate(90 78.871 118.812)" fill="#1DC0AD" fill-opacity="0.25"/>
<ellipse cx="54.1581" cy="118.812" rx="4.75246" ry="5.1485" transform="rotate(90 54.1581 118.812)" fill="#1DC0AD" fill-opacity="0.25"/>
<ellipse cx="29.8613" cy="4.75271" rx="4.75246" ry="5.1485" transform="rotate(90 29.8613 4.75271)" fill="#1DC0AD" fill-opacity="0.25"/>
<ellipse cx="5.14837" cy="4.75246" rx="4.75246" ry="5.1485" transform="rotate(90 5.14837 4.75246)" fill="#1DC0AD" fill-opacity="0.25"/>
<ellipse cx="29.8613" cy="27.5642" rx="4.75246" ry="5.1485" transform="rotate(90 29.8613 27.5642)" fill="#1DC0AD" fill-opacity="0.25"/>
<ellipse cx="5.14837" cy="27.5642" rx="4.75246" ry="5.1485" transform="rotate(90 5.14837 27.5642)" fill="#1DC0AD" fill-opacity="0.25"/>
<ellipse cx="29.8613" cy="50.376" rx="4.75246" ry="5.1485" transform="rotate(90 29.8613 50.376)" fill="#1DC0AD" fill-opacity="0.25"/>
<ellipse cx="5.14837" cy="50.376" rx="4.75246" ry="5.1485" transform="rotate(90 5.14837 50.376)" fill="#1DC0AD" fill-opacity="0.25"/>
<ellipse cx="29.8613" cy="73.1878" rx="4.75246" ry="5.1485" transform="rotate(90 29.8613 73.1878)" fill="#1DC0AD" fill-opacity="0.25"/>
<ellipse cx="5.14837" cy="73.1878" rx="4.75246" ry="5.1485" transform="rotate(90 5.14837 73.1878)" fill="#1DC0AD" fill-opacity="0.25"/>
<ellipse cx="29.8613" cy="95.9998" rx="4.75246" ry="5.1485" transform="rotate(90 29.8613 95.9998)" fill="#1DC0AD" fill-opacity="0.25"/>
<ellipse cx="5.14837" cy="95.9998" rx="4.75246" ry="5.1485" transform="rotate(90 5.14837 95.9998)" fill="#1DC0AD" fill-opacity="0.25"/>
<ellipse cx="29.8613" cy="118.812" rx="4.75246" ry="5.1485" transform="rotate(90 29.8613 118.812)" fill="#1DC0AD" fill-opacity="0.25"/>
<ellipse cx="5.14837" cy="118.812" rx="4.75246" ry="5.1485" transform="rotate(90 5.14837 118.812)" fill="#1DC0AD" fill-opacity="0.25"/>
</svg>
