<svg width="179" height="108" viewBox="0 0 179 108" fill="none" xmlns="http://www.w3.org/2000/svg">
<ellipse cx="173.783" cy="4.15411" rx="4.15387" ry="4.61545" transform="rotate(90 173.783 4.15411)" fill="#1DC0AD" fill-opacity="0.25"/>
<ellipse cx="151.629" cy="4.15387" rx="4.15387" ry="4.61545" transform="rotate(90 151.629 4.15387)" fill="#1DC0AD" fill-opacity="0.25"/>
<ellipse cx="129.474" cy="4.15387" rx="4.15387" ry="4.61545" transform="rotate(90 129.474 4.15387)" fill="#1DC0AD" fill-opacity="0.25"/>
<ellipse cx="107.32" cy="4.15387" rx="4.15387" ry="4.61545" transform="rotate(90 107.32 4.15387)" fill="#1DC0AD" fill-opacity="0.25"/>
<ellipse cx="85.1658" cy="4.15387" rx="4.15387" ry="4.61545" transform="rotate(90 85.1658 4.15387)" fill="#1DC0AD" fill-opacity="0.25"/>
<ellipse cx="173.783" cy="24.0931" rx="4.15387" ry="4.61545" transform="rotate(90 173.783 24.0931)" fill="#1DC0AD" fill-opacity="0.25"/>
<ellipse cx="151.629" cy="24.0931" rx="4.15387" ry="4.61545" transform="rotate(90 151.629 24.0931)" fill="#1DC0AD" fill-opacity="0.25"/>
<ellipse cx="129.474" cy="24.0931" rx="4.15387" ry="4.61545" transform="rotate(90 129.474 24.0931)" fill="#1DC0AD" fill-opacity="0.25"/>
<ellipse cx="107.32" cy="24.0931" rx="4.15387" ry="4.61545" transform="rotate(90 107.32 24.0931)" fill="#1DC0AD" fill-opacity="0.25"/>
<ellipse cx="85.1658" cy="24.0931" rx="4.15387" ry="4.61545" transform="rotate(90 85.1658 24.0931)" fill="#1DC0AD" fill-opacity="0.25"/>
<ellipse cx="173.783" cy="44.0303" rx="4.15387" ry="4.61545" transform="rotate(90 173.783 44.0303)" fill="#1DC0AD" fill-opacity="0.25"/>
<ellipse cx="151.629" cy="44.0303" rx="4.15387" ry="4.61545" transform="rotate(90 151.629 44.0303)" fill="#1DC0AD" fill-opacity="0.25"/>
<ellipse cx="129.474" cy="44.0303" rx="4.15387" ry="4.61545" transform="rotate(90 129.474 44.0303)" fill="#1DC0AD" fill-opacity="0.25"/>
<ellipse cx="107.32" cy="44.0303" rx="4.15387" ry="4.61545" transform="rotate(90 107.32 44.0303)" fill="#1DC0AD" fill-opacity="0.25"/>
<ellipse cx="85.1658" cy="44.0303" rx="4.15387" ry="4.61545" transform="rotate(90 85.1658 44.0303)" fill="#1DC0AD" fill-opacity="0.25"/>
<ellipse cx="173.783" cy="63.9695" rx="4.15387" ry="4.61545" transform="rotate(90 173.783 63.9695)" fill="#1DC0AD" fill-opacity="0.25"/>
<ellipse cx="151.629" cy="63.9695" rx="4.15387" ry="4.61545" transform="rotate(90 151.629 63.9695)" fill="#1DC0AD" fill-opacity="0.25"/>
<ellipse cx="129.474" cy="63.9695" rx="4.15387" ry="4.61545" transform="rotate(90 129.474 63.9695)" fill="#1DC0AD" fill-opacity="0.25"/>
<ellipse cx="107.32" cy="63.9695" rx="4.15387" ry="4.61545" transform="rotate(90 107.32 63.9695)" fill="#1DC0AD" fill-opacity="0.25"/>
<ellipse cx="85.1658" cy="63.9695" rx="4.15387" ry="4.61545" transform="rotate(90 85.1658 63.9695)" fill="#1DC0AD" fill-opacity="0.25"/>
<ellipse cx="173.783" cy="83.909" rx="4.15387" ry="4.61545" transform="rotate(90 173.783 83.909)" fill="#1DC0AD" fill-opacity="0.25"/>
<ellipse cx="151.629" cy="83.909" rx="4.15387" ry="4.61545" transform="rotate(90 151.629 83.909)" fill="#1DC0AD" fill-opacity="0.25"/>
<ellipse cx="129.474" cy="83.909" rx="4.15387" ry="4.61545" transform="rotate(90 129.474 83.909)" fill="#1DC0AD" fill-opacity="0.25"/>
<ellipse cx="63.0115" cy="4.15387" rx="4.15387" ry="4.61545" transform="rotate(90 63.0115 4.15387)" fill="#1DC0AD" fill-opacity="0.25"/>
<ellipse cx="40.8572" cy="4.15387" rx="4.15387" ry="4.61545" transform="rotate(90 40.8572 4.15387)" fill="#1DC0AD" fill-opacity="0.25"/>
<ellipse cx="63.0115" cy="24.0931" rx="4.15387" ry="4.61545" transform="rotate(90 63.0115 24.0931)" fill="#1DC0AD" fill-opacity="0.25"/>
<ellipse cx="40.8572" cy="24.0931" rx="4.15387" ry="4.61545" transform="rotate(90 40.8572 24.0931)" fill="#1DC0AD" fill-opacity="0.25"/>
<ellipse cx="63.0115" cy="44.0303" rx="4.15387" ry="4.61545" transform="rotate(90 63.0115 44.0303)" fill="#1DC0AD" fill-opacity="0.25"/>
<ellipse cx="40.8572" cy="44.0303" rx="4.15387" ry="4.61545" transform="rotate(90 40.8572 44.0303)" fill="#1DC0AD" fill-opacity="0.25"/>
<ellipse cx="63.0115" cy="63.9695" rx="4.15387" ry="4.61545" transform="rotate(90 63.0115 63.9695)" fill="#1DC0AD" fill-opacity="0.25"/>
<ellipse cx="40.8572" cy="63.9695" rx="4.15387" ry="4.61545" transform="rotate(90 40.8572 63.9695)" fill="#1DC0AD" fill-opacity="0.25"/>
<ellipse cx="63.0115" cy="83.909" rx="4.15387" ry="4.61545" transform="rotate(90 63.0115 83.909)" fill="#1DC0AD" fill-opacity="0.25"/>
<ellipse cx="40.8572" cy="83.909" rx="4.15387" ry="4.61545" transform="rotate(90 40.8572 83.909)" fill="#1DC0AD" fill-opacity="0.25"/>
<ellipse cx="107.32" cy="83.909" rx="4.15387" ry="4.61545" transform="rotate(90 107.32 83.909)" fill="#1DC0AD" fill-opacity="0.25"/>
<ellipse cx="85.1658" cy="83.909" rx="4.15387" ry="4.61545" transform="rotate(90 85.1658 83.909)" fill="#1DC0AD" fill-opacity="0.25"/>
<ellipse cx="173.783" cy="103.846" rx="4.15387" ry="4.61545" transform="rotate(90 173.783 103.846)" fill="#1DC0AD" fill-opacity="0.25"/>
<ellipse cx="151.629" cy="103.846" rx="4.15387" ry="4.61545" transform="rotate(90 151.629 103.846)" fill="#1DC0AD" fill-opacity="0.25"/>
<ellipse cx="129.474" cy="103.846" rx="4.15387" ry="4.61545" transform="rotate(90 129.474 103.846)" fill="#1DC0AD" fill-opacity="0.25"/>
<ellipse cx="107.32" cy="103.846" rx="4.15387" ry="4.61545" transform="rotate(90 107.32 103.846)" fill="#1DC0AD" fill-opacity="0.25"/>
<ellipse cx="85.1658" cy="103.846" rx="4.15387" ry="4.61545" transform="rotate(90 85.1658 103.846)" fill="#1DC0AD" fill-opacity="0.25"/>
<ellipse cx="63.0115" cy="103.846" rx="4.15387" ry="4.61545" transform="rotate(90 63.0115 103.846)" fill="#1DC0AD" fill-opacity="0.25"/>
<ellipse cx="40.8572" cy="103.846" rx="4.15387" ry="4.61545" transform="rotate(90 40.8572 103.846)" fill="#1DC0AD" fill-opacity="0.25"/>
<ellipse cx="18.7029" cy="4.15411" rx="4.15387" ry="4.61545" transform="rotate(90 18.7029 4.15411)" fill="#1DC0AD" fill-opacity="0.25"/>
<ellipse cx="-3.45138" cy="4.15387" rx="4.15387" ry="4.61545" transform="rotate(90 -3.45138 4.15387)" fill="#1DC0AD" fill-opacity="0.25"/>
<ellipse cx="18.7029" cy="24.0931" rx="4.15387" ry="4.61545" transform="rotate(90 18.7029 24.0931)" fill="#1DC0AD" fill-opacity="0.25"/>
<ellipse cx="-3.45138" cy="24.0931" rx="4.15387" ry="4.61545" transform="rotate(90 -3.45138 24.0931)" fill="#1DC0AD" fill-opacity="0.25"/>
<ellipse cx="18.7029" cy="44.0303" rx="4.15387" ry="4.61545" transform="rotate(90 18.7029 44.0303)" fill="#1DC0AD" fill-opacity="0.25"/>
<ellipse cx="-3.45138" cy="44.0303" rx="4.15387" ry="4.61545" transform="rotate(90 -3.45138 44.0303)" fill="#1DC0AD" fill-opacity="0.25"/>
<ellipse cx="18.7029" cy="63.9698" rx="4.15387" ry="4.61545" transform="rotate(90 18.7029 63.9698)" fill="#1DC0AD" fill-opacity="0.25"/>
<ellipse cx="-3.45138" cy="63.9695" rx="4.15387" ry="4.61545" transform="rotate(90 -3.45138 63.9695)" fill="#1DC0AD" fill-opacity="0.25"/>
<ellipse cx="18.7029" cy="83.909" rx="4.15387" ry="4.61545" transform="rotate(90 18.7029 83.909)" fill="#1DC0AD" fill-opacity="0.25"/>
<ellipse cx="-3.45138" cy="83.909" rx="4.15387" ry="4.61545" transform="rotate(90 -3.45138 83.909)" fill="#1DC0AD" fill-opacity="0.25"/>
<ellipse cx="18.7029" cy="103.846" rx="4.15387" ry="4.61545" transform="rotate(90 18.7029 103.846)" fill="#1DC0AD" fill-opacity="0.25"/>
<ellipse cx="-3.45138" cy="103.846" rx="4.15387" ry="4.61545" transform="rotate(90 -3.45138 103.846)" fill="#1DC0AD" fill-opacity="0.25"/>
</svg>
