<svg width="39" height="40" viewBox="0 0 39 40" fill="none" xmlns="http://www.w3.org/2000/svg">
<rect width="39" height="40" rx="7" fill="#FDE7DD"/>
<path d="M28.4619 12.0723H27.3848C27.2149 12.0723 27.0772 12.2165 27.0772 12.3945C27.0772 12.5726 27.2149 12.7168 27.3848 12.7168H28.4619C28.9708 12.7168 29.3848 13.1505 29.3848 13.6836V15.166H9.61523V13.6836C9.61523 13.1505 10.0292 12.7168 10.5381 12.7168H27.9234C28.0933 12.7168 29.3926 12.502 27.7236 12.3945C30.0488 12.3945 28.0933 12.0723 27.9234 12.0723H10.5381C9.68996 12.0723 9 12.7951 9 13.6836V18.7969C9 18.9749 9.17875 18.7969 9.34863 18.7969C9.67676 18.9688 9.61523 18.7969 9.61523 17.2363V15.8105H29.3848V24.1192C29.3848 24.2973 29.5225 24.4415 29.6924 24.4415C29.8623 24.4415 30 24.2973 30 24.1192V13.6836C30 12.7951 29.31 12.0723 28.4619 12.0723Z" fill="#764111"/>
<path d="M29.6924 25.1561C29.6924 23.631 29.3848 23.4529 29.3848 23.631V26.3165C29.3848 26.8496 28.9708 27.2833 28.4619 27.2833H10.5381C10.0292 27.2833 9.61523 26.8496 9.61523 26.3165V18.6194C9.61523 18.4414 9.4775 18.2971 9.30762 18.2971C9.13773 18.2971 9 18.4414 9 18.6194V26.3165C9 27.205 9.68996 27.9278 10.5381 27.9278H28.4619C29.31 27.9278 30 27.205 30 26.3165V24.0392C30 23.8612 29.5488 23.0724 29.6924 25.1561Z" fill="#764111"/>
<path d="M13.4499 19.0743C13.3297 18.9485 13.135 18.9485 13.0149 19.0743L11.1663 21.0109C11.1086 21.0714 11.0762 21.1533 11.0762 21.2388C11.0762 21.3244 11.1086 21.4062 11.1663 21.4667L12.9904 23.3777C13.0505 23.4406 13.1292 23.4721 13.2079 23.4721C13.2866 23.4721 13.3654 23.4406 13.4254 23.3777C13.5456 23.2518 13.5456 23.0478 13.4254 22.922L11.8188 21.2389L13.4499 19.5302C13.57 19.4043 13.57 19.2002 13.4499 19.0743Z" fill="#764111"/>
<path d="M17.5872 23.3777C17.6472 23.4406 17.726 23.4721 17.8047 23.4721C17.8834 23.4721 17.9622 23.4406 18.0222 23.3777L19.8464 21.4667C19.904 21.4063 19.9365 21.3244 19.9365 21.2388C19.9365 21.1533 19.904 21.0714 19.8464 21.0109L17.9978 19.0743C17.8776 18.9485 17.6829 18.9485 17.5628 19.0743C17.4426 19.2002 17.4426 19.4043 17.5628 19.5301L19.1939 21.2388L17.5872 22.9219C17.4671 23.0479 17.4671 23.2519 17.5872 23.3777Z" fill="#764111"/>
<path d="M14.4131 24.5645C14.5372 24.5645 14.6541 24.4852 14.7007 24.3564L16.8866 18.3237C16.9469 18.1573 16.867 17.9712 16.7082 17.908C16.5494 17.8448 16.3717 17.9286 16.3115 18.095L14.1256 24.1278C14.0653 24.2941 14.1452 24.4802 14.304 24.5434C14.3399 24.5577 14.3768 24.5645 14.4131 24.5645Z" fill="#764111"/>
<path d="M10.3535 13.9573C10.3535 14.4903 10.7675 14.9241 11.2764 14.9241C11.7852 14.9241 12.1992 14.4903 12.1992 13.9573C12.1992 13.4242 11.7852 12.9905 11.2764 12.9905C10.7675 12.9905 10.3535 13.4242 10.3535 13.9573ZM11.584 13.9573C11.584 14.135 11.446 14.2795 11.2764 14.2795C11.1067 14.2795 10.9687 14.135 10.9687 13.9573C10.9687 13.7796 11.1067 13.635 11.2764 13.635C11.446 13.635 11.584 13.7796 11.584 13.9573Z" fill="#764111"/>
<path d="M12.7402 13.9573C12.7402 14.4903 13.1542 14.9241 13.6631 14.9241C14.172 14.9241 14.5859 14.4903 14.5859 13.9573C14.5859 13.4242 14.172 12.9905 13.6631 12.9905C13.1542 12.9905 12.7402 13.4242 12.7402 13.9573ZM13.9707 13.9573C13.9707 14.135 13.8327 14.2795 13.6631 14.2795C13.4934 14.2795 13.3555 14.135 13.3555 13.9573C13.3555 13.7796 13.4934 13.635 13.6631 13.635C13.8327 13.635 13.9707 13.7796 13.9707 13.9573Z" fill="#764111"/>
<path d="M15.125 13.9573C15.125 14.4903 15.539 14.9241 16.0479 14.9241C16.5567 14.9241 16.9707 14.4903 16.9707 13.9573C16.9707 13.4242 16.5567 12.9905 16.0479 12.9905C15.539 12.9905 15.125 13.4242 15.125 13.9573ZM16.3555 13.9573C16.3555 14.135 16.2175 14.2795 16.0479 14.2795C15.8782 14.2795 15.7402 14.135 15.7402 13.9573C15.7402 13.7796 15.8782 13.635 16.0479 13.635C16.2175 13.635 16.3555 13.7796 16.3555 13.9573Z" fill="#764111"/>
<path d="M22.7607 19.4141H24.6885C25.1973 19.4141 25.6113 18.9803 25.6113 18.4473C25.6113 17.9142 25.1973 17.4805 24.6885 17.4805H22.7607C22.2519 17.4805 21.8379 17.9142 21.8379 18.4473C21.8379 18.9803 22.2519 19.4141 22.7607 19.4141ZM22.7607 18.125H24.6885C24.8581 18.125 24.9961 18.2695 24.9961 18.4473C24.9961 18.625 24.8581 18.7695 24.6885 18.7695H22.7607C22.5911 18.7695 22.4531 18.625 22.4531 18.4473C22.4531 18.2695 22.5911 18.125 22.7607 18.125Z" fill="#764111"/>
<path d="M22.7607 21.9922H27.8467C28.3555 21.9922 28.7695 21.5585 28.7695 21.0254C28.7695 20.4923 28.3555 20.0586 27.8467 20.0586H22.7607C22.2519 20.0586 21.8379 20.4923 21.8379 21.0254C21.8379 21.5585 22.2519 21.9922 22.7607 21.9922ZM22.7607 20.7031H27.8467C28.0163 20.7031 28.1543 20.8477 28.1543 21.0254C28.1543 21.2031 28.0163 21.3477 27.8467 21.3477H22.7607C22.5911 21.3477 22.4531 21.2031 22.4531 21.0254C22.4531 20.8477 22.5911 20.7031 22.7607 20.7031Z" fill="#764111"/>
<path d="M22.7607 24.5703H26.3359C26.8447 24.5703 27.2587 24.1366 27.2587 23.6035C27.2587 23.0704 26.8447 22.6367 26.3359 22.6367H22.7607C22.2519 22.6367 21.8379 23.0704 21.8379 23.6035C21.8379 24.1366 22.2519 24.5703 22.7607 24.5703ZM22.7607 23.2812H26.3359C26.5055 23.2812 26.6435 23.4258 26.6435 23.6035C26.6435 23.7812 26.5055 23.9258 26.3359 23.9258H22.7607C22.5911 23.9258 22.4531 23.7812 22.4531 23.6035C22.4531 23.4258 22.5911 23.2812 22.7607 23.2812Z" fill="#764111"/>
</svg>
