<svg width="39" height="40" viewBox="0 0 39 40" fill="none" xmlns="http://www.w3.org/2000/svg">
<rect width="39" height="40" rx="10" fill="#E8DBF4"/>
<path d="M19.5 12.0508C17.7107 12.0508 15.9731 12.7162 14.6073 13.9245C12.7119 15.832 13.6688 15.1804 13.7783 15.3164C13.888 15.4524 13.1426 16.4551 15.0042 14.4169C16.2591 13.3067 17.8558 12.6953 19.5 12.6953C23.3447 12.6953 26.4727 15.9722 26.4727 20C26.4727 24.0278 23.3447 27.3047 19.5 27.3047C15.6553 27.3047 12.5273 24.0278 12.5273 20C12.5273 18.2775 13.111 16.6048 14.1707 15.2902C14.2803 15.1542 14.2639 14.9509 14.1341 14.836C14.0043 14.7212 13.8102 14.7383 13.7006 14.8743C12.5473 16.3051 11.9121 18.1255 11.9121 20C11.9121 24.3832 15.316 27.9492 19.5 27.9492C23.684 27.9492 27.0879 24.3832 27.0879 20C27.0879 15.6168 23.684 12.0508 19.5 12.0508Z" fill="#501176"/>
<path d="M29.1702 21.1135C29.6588 20.9855 30 20.5276 30 20C30 19.4724 29.6588 19.0145 29.1702 18.8865L28.2228 18.6384C28.1811 18.3436 28.1255 18.0498 28.0568 17.7605L28.8408 17.1519C29.2454 16.8378 29.3935 16.2779 29.2007 15.7905C29.008 15.303 28.5254 15.0167 28.0273 15.0944L27.0616 15.2449C26.915 14.9898 26.756 14.7409 26.5867 14.5016L27.0894 13.6239C27.3485 13.1714 27.2807 12.5949 26.9246 12.2218C26.5685 11.8487 26.0182 11.7777 25.5862 12.0491L24.7484 12.5759C24.5199 12.3984 24.2824 12.2319 24.0389 12.0783L24.1825 11.0667C24.2567 10.5448 23.9835 10.0392 23.5182 9.83733C23.0529 9.63546 22.5185 9.7905 22.2186 10.2144L21.6377 11.0357C21.3614 10.9637 21.0809 10.9054 20.7997 10.8618L20.5629 9.86939C20.4408 9.3575 20.0037 9 19.5 9C18.9963 9 18.5592 9.3575 18.4371 9.86939L18.2003 10.8618C17.9191 10.9055 17.6386 10.9637 17.3623 11.0358L16.7814 10.2145C16.4816 9.79054 15.9473 9.63542 15.4818 9.83738C15.0165 10.0393 14.7433 10.5448 14.8175 11.0667L14.9611 12.0784C14.7176 12.2319 14.4801 12.3984 14.2516 12.5759L13.4137 12.0492C12.9818 11.7778 12.4315 11.8488 12.0754 12.2219C11.7192 12.595 11.6515 13.1715 11.9106 13.624L12.4133 14.5017C12.2439 14.7411 12.0849 14.9899 11.9384 15.245L10.9727 15.0945C10.4743 15.0168 9.99192 15.3031 9.79927 15.7905C9.6065 16.278 9.75452 16.8378 10.1592 17.152L10.9432 17.7605C10.8744 18.0499 10.8188 18.3438 10.7771 18.6384L9.82979 18.8866C9.34125 19.0145 9 19.4724 9 20C9 20.5276 9.34125 20.9855 9.82983 21.1135L10.7772 21.3616C10.8188 21.6562 10.8744 21.9501 10.9432 22.2395L10.1592 22.8481C9.75456 23.1622 9.6065 23.722 9.79927 24.2095C9.992 24.697 10.4747 24.9833 10.9727 24.9055L11.9384 24.755C12.085 25.0102 12.2439 25.259 12.4133 25.4983L11.9106 26.376C11.6515 26.8285 11.7193 27.4051 12.0754 27.7781C12.4316 28.1512 12.982 28.2222 13.4138 27.9507L14.2516 27.4241C14.4801 27.6016 14.7176 27.7681 14.9612 27.9216L14.8175 28.9333C14.7433 29.4552 15.0165 29.9607 15.4819 30.1626C15.9471 30.3645 16.4816 30.2095 16.7814 29.7855L17.3623 28.9642C17.6385 29.0363 17.9191 29.0945 18.2003 29.1382L18.4372 30.1306C18.5592 30.6425 18.9963 31 19.5 31C20.0037 31 20.4408 30.6425 20.5629 30.1306L20.7997 29.1382C21.0809 29.0945 21.3614 29.0363 21.6377 28.9642L22.2186 29.7855C22.5185 30.2095 23.053 30.3645 23.5182 30.1626C23.9835 29.9607 24.2567 29.4552 24.1825 28.9333L24.0389 27.9216C24.2824 27.7681 24.5199 27.6016 24.7484 27.4241L25.5863 27.9507C26.0181 28.2222 26.5685 28.1513 26.9246 27.7781C27.2808 27.405 27.3485 26.8285 27.0894 26.376L26.5867 25.4983C26.7561 25.259 26.915 25.0102 27.0616 24.755L28.0272 24.9055C28.5257 24.9831 29.008 24.697 29.2007 24.2095C29.3935 23.7221 29.2454 23.1622 28.8408 22.8481L28.0568 22.2395C28.1256 21.9502 28.1811 21.6564 28.2228 21.3616L29.1702 21.1135ZM27.5234 22.6276L28.4745 23.3659C28.6519 23.5037 28.7168 23.7491 28.6323 23.9629C28.5478 24.1766 28.3367 24.3022 28.1178 24.268L26.9464 24.0854C26.8208 24.066 26.6966 24.1292 26.6338 24.2448C26.4384 24.6044 26.2161 24.9523 25.9731 25.2788C25.895 25.3839 25.8865 25.5286 25.9519 25.6428L26.5618 26.7076C26.6754 26.906 26.6457 27.1588 26.4895 27.3224C26.3334 27.486 26.0922 27.5171 25.9027 27.3981L24.8863 26.7592C24.7773 26.6906 24.6392 26.6995 24.5389 26.7813C24.227 27.036 23.8949 27.2689 23.5518 27.4735C23.4414 27.5393 23.381 27.6694 23.3997 27.801L23.574 29.0282C23.6065 29.257 23.4867 29.4786 23.2827 29.5672C23.0786 29.6557 22.8443 29.5877 22.7129 29.4018L22.0081 28.4054C21.9325 28.2985 21.8022 28.2514 21.6794 28.2865C21.2979 28.3964 20.9058 28.4778 20.5141 28.5284C20.3878 28.5447 20.2842 28.6407 20.2533 28.7701L19.9659 29.9743C19.9125 30.1987 19.7208 30.3555 19.5 30.3555C19.2792 30.3555 19.0875 30.1987 19.034 29.9742L18.7466 28.7701C18.7157 28.6408 18.6121 28.5447 18.4858 28.5284C18.094 28.4778 17.702 28.3964 17.3205 28.2866C17.2935 28.2788 17.2661 28.275 17.239 28.275C17.1431 28.275 17.0508 28.3221 16.9918 28.4055L16.2871 29.4019C16.1556 29.5877 15.9213 29.6557 15.7173 29.5672C15.5132 29.4787 15.3935 29.2571 15.426 29.0282L15.6002 27.8011C15.6189 27.6695 15.5585 27.5394 15.4481 27.4736C15.1051 27.2689 14.7729 27.036 14.4611 26.7814C14.3608 26.6995 14.2227 26.6907 14.1137 26.7592L13.0973 27.3981C12.908 27.5172 12.6666 27.486 12.5104 27.3224C12.3543 27.1589 12.3246 26.9061 12.4382 26.7077L13.048 25.6428C13.1135 25.5286 13.105 25.3839 13.0268 25.2789C12.7838 24.9523 12.5615 24.6044 12.3661 24.2448C12.3033 24.1292 12.1789 24.0659 12.0535 24.0855L10.8821 24.2681C10.664 24.3021 10.4522 24.1767 10.3676 23.9629C10.2831 23.7492 10.348 23.5037 10.5255 23.366L11.4766 22.6277C11.5786 22.5484 11.6237 22.4116 11.5901 22.2833C11.4852 21.8837 11.4075 21.473 11.3592 21.0625C11.3437 20.9302 11.252 20.8216 11.1285 20.7893L9.97908 20.4883C9.76482 20.4321 9.61523 20.2313 9.61523 20C9.61523 19.7687 9.76482 19.5679 9.97908 19.5118L11.1285 19.2108C11.252 19.1784 11.3437 19.0698 11.3592 18.9376C11.4075 18.5271 11.4852 18.1164 11.5901 17.7167C11.6237 17.5884 11.5787 17.4516 11.4766 17.3723L10.5255 16.6341C10.3481 16.4963 10.2831 16.2509 10.3677 16.0371C10.4522 15.8234 10.6635 15.6979 10.8822 15.732L12.0535 15.9146C12.1793 15.9341 12.3033 15.8708 12.3661 15.7552C12.5615 15.3957 12.7838 15.0478 13.0268 14.7211C13.105 14.6161 13.1134 14.4714 13.048 14.3572L12.4382 13.2924C12.3245 13.094 12.3543 12.8412 12.5104 12.6776C12.6666 12.514 12.9079 12.4829 13.0973 12.6019L14.1137 13.2408C14.2227 13.3094 14.3608 13.3006 14.4611 13.2186C14.7729 12.964 15.1051 12.7311 15.4482 12.5264C15.5585 12.4606 15.6189 12.3305 15.6002 12.1989L15.426 10.9718C15.3935 10.743 15.5132 10.5214 15.7173 10.4328C15.9213 10.3443 16.1556 10.4123 16.2871 10.5982L16.9918 11.5946C17.0674 11.7015 17.198 11.7487 17.3205 11.7135C17.7021 11.6036 18.0942 11.5223 18.4859 11.4717C18.6121 11.4554 18.7158 11.3593 18.7467 11.23L19.0341 10.0258C19.0875 9.80128 19.2792 9.64453 19.5 9.64453C19.7208 9.64453 19.9125 9.80128 19.966 10.0258L20.2534 11.2299C20.2843 11.3592 20.3879 11.4553 20.5142 11.4716C20.9059 11.5222 21.2979 11.6036 21.6795 11.7134C21.802 11.7487 21.9326 11.7015 22.0082 11.5945L22.713 10.5981C22.8444 10.4123 23.0787 10.3443 23.2827 10.4328C23.4868 10.5213 23.6066 10.7429 23.5741 10.9718L23.3998 12.1989C23.3811 12.3305 23.4415 12.4606 23.5519 12.5264C23.895 12.7311 24.2271 12.964 24.5389 13.2186C24.6392 13.3005 24.7772 13.3093 24.8863 13.2408L25.9028 12.6019C26.0921 12.4829 26.3334 12.514 26.4896 12.6776C26.6458 12.8412 26.6755 13.094 26.5619 13.2924L25.952 14.3572C25.8866 14.4715 25.895 14.6161 25.9732 14.7212C26.2162 15.0477 26.4385 15.3956 26.6339 15.7553C26.6967 15.8709 26.8211 15.934 26.9465 15.9146L28.1179 15.732C28.3359 15.6978 28.5479 15.8234 28.6324 16.0372C28.7169 16.2509 28.652 16.4964 28.4746 16.6341L27.5235 17.3724C27.4214 17.4516 27.3763 17.5884 27.41 17.7168C27.5148 18.1162 27.5924 18.5269 27.6408 18.9376C27.6564 19.0699 27.7481 19.1785 27.8715 19.2108L29.021 19.5118C29.2352 19.5679 29.3848 19.7687 29.3848 20C29.3848 20.2313 29.2352 20.4321 29.0209 20.4882L27.8715 20.7893C27.748 20.8216 27.6564 20.9301 27.6408 21.0624C27.5924 21.4731 27.5147 21.8839 27.4099 22.2832C27.3762 22.4116 27.4213 22.5484 27.5234 22.6276Z" fill="#501176"/>
<path d="M17.9609 20C17.9609 20.8885 18.6509 21.6113 19.499 21.6113C20.3471 21.6113 21.0371 20.8885 21.0371 20C21.0371 19.1115 20.3471 18.3887 19.499 18.3887C18.6509 18.3887 17.9609 19.1115 17.9609 20ZM20.4219 20C20.4219 20.5331 20.0079 20.9668 19.499 20.9668C18.9902 20.9668 18.5762 20.5331 18.5762 20C18.5762 19.4669 18.9902 19.0332 19.499 19.0332C20.0079 19.0332 20.4219 19.4669 20.4219 20Z" fill="#501176"/>
<path d="M18.8167 15.008C18.5812 14.8251 18.2861 14.7712 18.007 14.86C16.3672 15.3817 15.0908 16.7189 14.5927 18.4369C14.5079 18.7293 14.5594 19.0384 14.7339 19.2851C14.9105 19.5346 15.1816 19.6777 15.4777 19.6777H17.1157C17.256 19.6777 17.3786 19.5782 17.4136 19.4358C17.6089 18.6408 18.2017 18.0198 18.9605 17.8152C19.0964 17.7785 19.1915 17.6502 19.1915 17.5031V15.7872C19.1914 15.477 19.0548 15.1929 18.8167 15.008ZM18.5762 17.2646C17.7875 17.556 17.1662 18.2069 16.888 19.0332H15.4777C15.3784 19.0332 15.2875 18.9851 15.2282 18.9013C15.1709 18.8203 15.1538 18.7193 15.1814 18.6242C15.6197 17.1125 16.7428 15.9358 18.1858 15.4767C18.2143 15.4676 18.2433 15.4632 18.2721 15.4632C18.3351 15.4632 18.3972 15.4846 18.4503 15.5258C18.5303 15.5879 18.5762 15.6832 18.5762 15.7872V17.2646H18.5762Z" fill="#501176"/>
<path d="M24.4073 18.4371C23.9092 16.7192 22.6328 15.382 20.993 14.8602C20.7138 14.7714 20.4188 14.8253 20.1833 15.0082C19.9452 15.1932 19.8086 15.4772 19.8086 15.7874V17.5033C19.8086 17.6503 19.9036 17.7787 20.0396 17.8154C20.7984 18.02 21.3911 18.641 21.5865 19.436C21.6215 19.5784 21.744 19.6779 21.8844 19.6779H23.5224C23.8185 19.6779 24.0896 19.5348 24.2661 19.2853C24.4407 19.0387 24.4921 18.7295 24.4073 18.4371ZM23.7719 18.9015C23.7125 18.9853 23.6216 19.0334 23.5223 19.0334H22.112C21.8339 18.2071 21.2125 17.5562 20.4238 17.2649V15.7874C20.4238 15.6834 20.4697 15.5881 20.5497 15.526C20.6271 15.4659 20.7234 15.4481 20.8142 15.4769C22.2572 15.9361 23.3803 17.1127 23.8187 18.6245C23.8462 18.7195 23.8292 18.8205 23.7719 18.9015Z" fill="#501176"/>
<path d="M14.5927 21.5631C15.0908 23.2811 16.3672 24.6182 18.007 25.14C18.0952 25.1681 18.185 25.1819 18.274 25.1819C18.4666 25.1819 18.6557 25.1171 18.8167 24.992C19.0549 24.807 19.1914 24.523 19.1914 24.2128V22.4969C19.1914 22.3498 19.0964 22.2214 18.9605 22.1848C18.2016 21.9802 17.6089 21.3592 17.4136 20.5642C17.3785 20.4218 17.256 20.3223 17.1156 20.3223H15.4777C15.1815 20.3223 14.9105 20.4654 14.7339 20.7149C14.5594 20.9615 14.5079 21.2707 14.5927 21.5631ZM15.2282 21.0987C15.2875 21.0149 15.3785 20.9668 15.4777 20.9668H16.888C17.1662 21.7931 17.7875 22.4439 18.5762 22.7353V24.2128C18.5762 24.3168 18.5303 24.4121 18.4503 24.4742C18.373 24.5343 18.2766 24.5521 18.1859 24.5233C16.7428 24.0641 15.6197 22.8875 15.1814 21.3757C15.1538 21.2807 15.1709 21.1797 15.2282 21.0987Z" fill="#501176"/>
<path d="M23.5204 20.3223H21.8824C21.7421 20.3223 21.6195 20.4218 21.5845 20.5642C21.3892 21.3592 20.7964 21.9802 20.0376 22.1848C19.9017 22.2214 19.8066 22.3498 19.8066 22.4969V24.2128C19.8066 24.523 19.9432 24.807 20.1814 24.992C20.3425 25.1171 20.5314 25.1819 20.7241 25.1819C20.8131 25.1819 20.9029 25.1681 20.9911 25.14C22.6309 24.6182 23.9073 23.2811 24.4054 21.5631C24.4901 21.2707 24.4387 20.9616 24.2642 20.7149C24.0876 20.4654 23.8165 20.3223 23.5204 20.3223ZM23.8168 21.3758C23.3785 22.8875 22.2553 24.0642 20.8123 24.5233C20.7216 24.5522 20.6252 24.5343 20.5478 24.4742C20.4679 24.4121 20.422 24.3168 20.422 24.2128V22.7353C21.2107 22.444 21.832 21.7931 22.1101 20.9668H23.5205C23.6197 20.9668 23.7107 21.0149 23.77 21.0987C23.8273 21.1797 23.8443 21.2807 23.8168 21.3758Z" fill="#501176"/>
</svg>
