<svg width="39" height="40" viewBox="0 0 39 40" fill="none" xmlns="http://www.w3.org/2000/svg">
<rect width="39" height="40" rx="10" fill="#C0F2EF"/>
<path d="M25.0876 14.5082C25.0354 14.5082 24.9843 14.4931 24.9397 14.4646C24.8952 14.4361 24.8591 14.3953 24.8352 14.3466C24.8114 14.298 24.8009 14.2434 24.8047 14.1889C24.8086 14.1344 24.8268 14.082 24.8572 14.0376C25.0299 13.7849 25.122 13.4815 25.1205 13.1707C25.12 12.8109 24.9971 12.4631 24.774 12.1896C24.5508 11.9162 24.2419 11.7349 23.9027 11.6785C23.5635 11.622 23.2162 11.6941 22.9231 11.8816C22.6301 12.0691 22.4103 12.3599 22.3034 12.7019C22.2788 12.7752 22.2277 12.8355 22.1611 12.8698C22.0946 12.9042 22.0178 12.9099 21.9473 12.8856C21.8768 12.8614 21.8182 12.8092 21.7839 12.7403C21.7497 12.6713 21.7426 12.591 21.7642 12.5166C21.9131 12.0402 22.2192 11.635 22.6276 11.3737C23.036 11.1124 23.5199 11.0121 23.9925 11.0909C24.4651 11.1696 24.8954 11.4223 25.2062 11.8035C25.517 12.1846 25.688 12.6694 25.6884 13.1707C25.6904 13.6058 25.5613 14.0305 25.3195 14.3843C25.2931 14.4228 25.2582 14.4542 25.2179 14.4757C25.1776 14.4973 25.1329 14.5084 25.0876 14.5082Z" fill="#115B76"/>
<path d="M27.2996 17.9454C27.2529 17.9454 27.207 17.9333 27.1659 17.9103C27.1247 17.8872 27.0896 17.8539 27.0637 17.8133C27.0378 17.7727 27.0218 17.726 27.0172 17.6774C27.0126 17.6287 27.0195 17.5797 27.0374 17.5345C27.1366 17.279 27.1867 17.0055 27.1849 16.7297C27.1882 16.436 27.1358 16.1446 27.0307 15.8722C26.9257 15.5999 26.7701 15.3521 26.573 15.1432C26.3759 14.9343 26.1412 14.7685 25.8824 14.6553C25.6237 14.5421 25.3461 14.4838 25.0658 14.4838C24.7854 14.4838 24.5078 14.5421 24.2491 14.6553C23.9904 14.7685 23.7557 14.9343 23.5586 15.1432C23.3615 15.3521 23.2059 15.5999 23.1008 15.8722C22.9958 16.1446 22.9434 16.436 22.9466 16.7297C22.9466 16.8086 22.9167 16.8842 22.8635 16.9399C22.8103 16.9957 22.7381 17.027 22.6628 17.027C22.5876 17.027 22.5154 16.9957 22.4622 16.9399C22.4089 16.8842 22.379 16.8086 22.379 16.7297C22.3754 16.3577 22.4422 15.9885 22.5756 15.6437C22.709 15.2988 22.9063 14.9851 23.1561 14.7207C23.406 14.4562 23.7034 14.2463 24.0312 14.103C24.359 13.9598 24.7106 13.886 25.0658 13.886C25.4209 13.886 25.7726 13.9598 26.1004 14.103C26.4281 14.2463 26.7256 14.4562 26.9754 14.7207C27.2253 14.9851 27.4226 15.2988 27.556 15.6437C27.6893 15.9885 27.7561 16.3577 27.7525 16.7297C27.7545 17.0839 27.6898 17.4349 27.5621 17.7628C27.5404 17.817 27.5039 17.8633 27.4572 17.8958C27.4105 17.9283 27.3556 17.9455 27.2996 17.9454Z" fill="#115B76"/>
<path d="M25.8454 22.4639C25.7532 22.4639 25.6618 22.4588 25.5718 22.4496C25.5347 22.4457 25.4988 22.4342 25.4659 22.4157C25.4331 22.3972 25.404 22.3722 25.3805 22.3419C25.3569 22.3117 25.3392 22.2769 25.3285 22.2395C25.3177 22.2021 25.3141 22.1629 25.3178 22.1241C25.3216 22.0852 25.3325 22.0475 25.3502 22.0131C25.3678 21.9787 25.3917 21.9483 25.4206 21.9236C25.4495 21.8989 25.4827 21.8804 25.5184 21.8691C25.554 21.8579 25.5915 21.8541 25.6286 21.858C25.6995 21.8653 25.7715 21.8691 25.8445 21.8693C26.2879 21.8698 26.7203 21.7244 27.0806 21.4537C27.4409 21.183 27.711 20.8006 27.8527 20.3604C27.9945 19.9203 28.0007 19.4447 27.8706 19.0006C27.7405 18.5565 27.4806 18.1665 27.1275 17.8855C27.0673 17.8382 27.0275 17.7677 27.0169 17.6897C27.0062 17.6116 27.0256 17.5323 27.0708 17.4693C27.1159 17.4062 27.1831 17.3645 27.2577 17.3533C27.3322 17.3422 27.4078 17.3625 27.4681 17.4098C27.9154 17.7663 28.2447 18.2607 28.4097 18.8236C28.5746 19.3865 28.5669 19.9894 28.3876 20.5474C28.2084 21.1054 27.8665 21.5905 27.4102 21.9343C26.954 22.2781 26.4063 22.4633 25.8442 22.4639H25.8454Z" fill="#115B76"/>
<path d="M24.8014 28.6977C24.7301 28.6977 24.6614 28.6696 24.609 28.619C24.5566 28.5683 24.5243 28.4989 24.5185 28.4244C24.5127 28.3499 24.534 28.2759 24.5779 28.2171C24.6219 28.1583 24.6854 28.119 24.7558 28.107C25.2509 28.023 25.7012 27.7567 26.0256 27.3559C26.35 26.9551 26.5271 26.4461 26.5251 25.9206C26.5252 25.7029 26.4952 25.4863 26.436 25.2776C26.4255 25.2401 26.4221 25.2009 26.426 25.1621C26.4299 25.1232 26.4411 25.0856 26.4589 25.0513C26.4767 25.017 26.5007 24.9867 26.5297 24.9622C26.5587 24.9376 26.592 24.9193 26.6277 24.9082C26.6635 24.8971 26.7009 24.8935 26.738 24.8976C26.7751 24.9017 26.811 24.9135 26.8437 24.9321C26.8765 24.9508 26.9054 24.976 26.9288 25.0063C26.9523 25.0367 26.9698 25.0716 26.9803 25.109C27.0552 25.3724 27.0935 25.6458 27.0938 25.9206C27.0963 26.5873 26.8714 27.2329 26.4599 27.7413C26.0483 28.2497 25.477 28.5875 24.8488 28.6938C24.8332 28.6963 24.8173 28.6976 24.8014 28.6977Z" fill="#115B76"/>
<path d="M26.7078 25.4904C26.6429 25.4904 26.5799 25.4672 26.5294 25.4244C26.4788 25.3817 26.4438 25.3221 26.4302 25.2556C26.4165 25.1891 26.4251 25.1196 26.4544 25.0589C26.4837 24.9982 26.532 24.9499 26.5912 24.922C26.9615 24.7465 27.2757 24.4629 27.4961 24.1052C27.7165 23.7475 27.8339 23.3309 27.8342 22.9051C27.836 22.4099 27.6773 21.9286 27.3841 21.5402C27.3394 21.4781 27.3197 21.4001 27.3293 21.323C27.3388 21.2459 27.3768 21.1758 27.4352 21.1277C27.4935 21.0796 27.5675 21.0573 27.6413 21.0657C27.715 21.0741 27.7828 21.1124 27.8299 21.1724C28.0809 21.5073 28.2559 21.8977 28.3416 22.3139C28.4272 22.7301 28.4214 23.1612 28.3245 23.5747C28.2276 23.9882 28.0422 24.3732 27.7822 24.7005C27.5223 25.0278 27.1947 25.2889 26.8242 25.4639C26.7876 25.4813 26.748 25.4903 26.7078 25.4904Z" fill="#115B76"/>
<path d="M22.2746 30.4055C21.4635 30.4045 20.6858 30.0666 20.1122 29.4657C19.5387 28.8648 19.216 28.0501 19.2151 27.2003V11.4786C19.2025 11.2127 19.2436 10.9469 19.3359 10.6988C19.4282 10.4506 19.5695 10.2257 19.7506 10.0388C19.9503 9.85179 20.1897 9.71747 20.449 9.64709C20.7083 9.5767 20.9798 9.57229 21.2411 9.63421C22.4976 9.94602 23.6764 10.5345 24.699 11.3606C24.7577 11.4101 24.7952 11.482 24.8033 11.5605C24.8114 11.6389 24.7895 11.7176 24.7422 11.7791C24.695 11.8406 24.6264 11.8799 24.5515 11.8884C24.4766 11.8969 24.4015 11.8739 24.3428 11.8244C23.3891 11.0609 22.2943 10.5135 21.1278 10.2169C20.9556 10.174 20.7761 10.1747 20.6041 10.2191C20.4322 10.2634 20.2729 10.3501 20.1394 10.472C20.016 10.6043 19.9205 10.7622 19.859 10.9356C19.7976 11.109 19.7716 11.294 19.7827 11.4786V27.2003C19.7829 27.7969 19.9781 28.3754 20.3358 28.8395C20.6935 29.3037 21.1922 29.6256 21.7487 29.7515C22.3053 29.8775 22.8863 29.8001 23.3951 29.532C23.9038 29.264 24.3096 28.8216 24.5449 28.2783C24.576 28.2065 24.6331 28.1506 24.7036 28.1228C24.7741 28.0951 24.8522 28.0978 24.9207 28.1304C24.9893 28.163 25.0427 28.2228 25.0692 28.2967C25.0957 28.3705 25.093 28.4524 25.0619 28.5242C24.8182 29.0846 24.4259 29.5598 23.9318 29.8933C23.4376 30.2268 22.8624 30.4046 22.2746 30.4055Z" fill="#115B76"/>
<path d="M13.9141 14.5082C13.869 14.5083 13.8246 14.497 13.7844 14.4755C13.7443 14.4539 13.7097 14.4226 13.6834 14.3843C13.4416 14.0305 13.3125 13.6058 13.3145 13.1707C13.3149 12.6694 13.4859 12.1846 13.7967 11.8035C14.1075 11.4223 14.5378 11.1696 15.0104 11.0909C15.483 11.0121 15.9669 11.1124 16.3752 11.3737C16.7836 11.635 17.0897 12.0402 17.2386 12.5166C17.2512 12.554 17.2565 12.5936 17.2542 12.6331C17.252 12.6726 17.2422 12.7112 17.2255 12.7467C17.2088 12.7822 17.1855 12.8139 17.157 12.8398C17.1285 12.8658 17.0953 12.8855 17.0594 12.8979C17.0235 12.9102 16.9856 12.9149 16.9479 12.9117C16.9103 12.9085 16.8736 12.8974 16.8401 12.8791C16.8066 12.8609 16.7768 12.8358 16.7527 12.8054C16.7285 12.7749 16.7104 12.7397 16.6995 12.7019C16.5928 12.3595 16.3732 12.0682 16.08 11.8803C15.7867 11.6924 15.4391 11.6202 15.0996 11.6767C14.7602 11.7332 14.451 11.9146 14.2278 12.1885C14.0046 12.4623 13.8819 12.8106 13.8818 13.1707C13.8803 13.4815 13.9724 13.7849 14.1451 14.0376C14.1755 14.082 14.1937 14.1344 14.1975 14.1889C14.2014 14.2434 14.1909 14.298 14.167 14.3466C14.1432 14.3953 14.1071 14.4361 14.0626 14.4646C14.018 14.4931 13.9669 14.5082 13.9147 14.5082H13.9141Z" fill="#115B76"/>
<path d="M11.7011 17.9454C11.6449 17.9454 11.59 17.928 11.5432 17.8953C11.4965 17.8626 11.4601 17.8161 11.4386 17.7616C11.3111 17.4341 11.2463 17.0835 11.2482 16.7297C11.2445 16.3577 11.3113 15.9885 11.4447 15.6437C11.5781 15.2988 11.7754 14.9851 12.0253 14.7207C12.2751 14.4562 12.5725 14.2463 12.9003 14.103C13.2281 13.9598 13.5797 13.886 13.9349 13.886C14.2901 13.886 14.6417 13.9598 14.9695 14.103C15.2973 14.2463 15.5947 14.4562 15.8446 14.7207C16.0944 14.9851 16.2917 15.2988 16.4251 15.6437C16.5585 15.9885 16.6253 16.3577 16.6216 16.7297C16.6216 16.8086 16.5917 16.8842 16.5385 16.9399C16.4853 16.9957 16.4131 17.027 16.3379 17.027C16.2626 17.027 16.1904 16.9957 16.1372 16.9399C16.084 16.8842 16.0541 16.8086 16.0541 16.7297C16.0573 16.436 16.0049 16.1446 15.8999 15.8722C15.7948 15.5999 15.6392 15.3521 15.4421 15.1432C15.245 14.9343 15.0103 14.7685 14.7516 14.6553C14.4929 14.5421 14.2153 14.4838 13.9349 14.4838C13.6545 14.4838 13.377 14.5421 13.1182 14.6553C12.8595 14.7685 12.6248 14.9343 12.4277 15.1432C12.2306 15.3521 12.075 15.5999 11.97 15.8722C11.8649 16.1446 11.8125 16.436 11.8158 16.7297C11.8138 17.0059 11.864 17.2798 11.9633 17.5357C11.9917 17.6084 11.9915 17.6899 11.9626 17.7625C11.9338 17.835 11.8788 17.8926 11.8095 17.9228C11.7751 17.9376 11.7383 17.9453 11.7011 17.9454Z" fill="#115B76"/>
<path d="M13.1545 22.4639C12.5918 22.4646 12.0432 22.2801 11.5861 21.9365C11.129 21.5928 10.7865 21.1074 10.607 20.5488C10.4276 19.9902 10.4202 19.3866 10.5859 18.8233C10.7516 18.2601 11.0821 17.7656 11.5307 17.4098C11.5909 17.3625 11.6666 17.3422 11.7411 17.3533C11.8156 17.3645 11.8828 17.4062 11.928 17.4693C11.9731 17.5323 11.9925 17.6116 11.9819 17.6897C11.9712 17.7677 11.9314 17.8382 11.8712 17.8855C11.5192 18.1671 11.2603 18.5571 11.1308 19.0008C11.0013 19.4445 11.0079 19.9196 11.1494 20.3592C11.291 20.7988 11.5605 21.1809 11.9201 21.4518C12.2797 21.7227 12.7113 21.8686 13.1542 21.8693C13.2272 21.8693 13.2992 21.8655 13.3701 21.858C13.4072 21.8541 13.4447 21.8578 13.4804 21.8691C13.516 21.8804 13.5493 21.8989 13.5781 21.9236C13.607 21.9483 13.6309 21.9787 13.6485 22.0131C13.6662 22.0475 13.6772 22.0852 13.6809 22.124C13.6846 22.1629 13.681 22.2021 13.6703 22.2395C13.6595 22.2769 13.6418 22.3117 13.6183 22.3419C13.5947 22.3722 13.5656 22.3972 13.5328 22.4157C13.5 22.4342 13.464 22.4457 13.4269 22.4496C13.3381 22.4588 13.2467 22.4639 13.1545 22.4639Z" fill="#115B76"/>
<path d="M14.1975 28.6977C14.182 28.6976 14.1666 28.6963 14.1513 28.6938C13.5231 28.5875 12.9518 28.2497 12.5403 27.7413C12.1287 27.2329 11.9039 26.5873 11.9063 25.9206C11.9067 25.6458 11.9449 25.3724 12.0198 25.109C12.0303 25.0716 12.0478 25.0367 12.0713 25.0063C12.0947 24.976 12.1236 24.9508 12.1564 24.9321C12.1891 24.9135 12.2251 24.9017 12.2621 24.8976C12.2992 24.8935 12.3366 24.8971 12.3724 24.9082C12.4081 24.9193 12.4414 24.9376 12.4704 24.9622C12.4994 24.9867 12.5235 25.017 12.5413 25.0513C12.5591 25.0856 12.5702 25.1232 12.5742 25.1621C12.5781 25.2009 12.5746 25.2401 12.5641 25.2776C12.505 25.4863 12.4749 25.7029 12.475 25.9206C12.473 26.4461 12.6501 26.9551 12.9745 27.3559C13.2989 27.7567 13.7492 28.023 14.2444 28.107C14.3147 28.119 14.3782 28.1583 14.4222 28.2171C14.4662 28.2759 14.4874 28.3499 14.4816 28.4244C14.4758 28.4989 14.4435 28.5683 14.3911 28.619C14.3387 28.6696 14.27 28.6977 14.1987 28.6977H14.1975Z" fill="#115B76"/>
<path d="M12.2924 25.4905C12.2523 25.4904 12.2126 25.4814 12.1761 25.464C11.8055 25.2891 11.4778 25.0282 11.2177 24.7009C10.9577 24.3736 10.7721 23.9887 10.6751 23.5752C10.5781 23.1617 10.5721 22.7304 10.6578 22.3142C10.7434 21.8979 10.9183 21.5075 11.1692 21.1726C11.192 21.141 11.2205 21.1144 11.2531 21.0945C11.2858 21.0746 11.3219 21.0618 11.3593 21.0567C11.3968 21.0516 11.4349 21.0544 11.4713 21.0649C11.5077 21.0754 11.5417 21.0934 11.5714 21.1179C11.6011 21.1424 11.6258 21.1728 11.6441 21.2075C11.6624 21.2421 11.6739 21.2802 11.678 21.3195C11.682 21.3588 11.6786 21.3986 11.6678 21.4366C11.657 21.4745 11.639 21.5098 11.615 21.5403C11.3218 21.9287 11.1631 22.41 11.165 22.9052C11.1652 23.331 11.2826 23.7476 11.503 24.1053C11.7235 24.463 12.0376 24.7466 12.4079 24.9221C12.4672 24.95 12.5155 24.9983 12.5448 25.059C12.5741 25.1198 12.5826 25.1892 12.569 25.2557C12.5553 25.3222 12.5203 25.3818 12.4698 25.4245C12.4192 25.4673 12.3562 25.4906 12.2913 25.4905H12.2924Z" fill="#115B76"/>
<path d="M16.724 30.4055C16.1363 30.4044 15.5613 30.2265 15.0673 29.893C14.5733 29.5595 14.1812 29.0844 13.9375 28.5242C13.9064 28.4523 13.9038 28.3705 13.9302 28.2966C13.9567 28.2228 14.0101 28.163 14.0787 28.1304C14.1472 28.0978 14.2254 28.0951 14.2959 28.1228C14.3663 28.1505 14.4234 28.2065 14.4545 28.2783C14.6902 28.821 15.0959 29.2629 15.6045 29.5306C16.113 29.7982 16.6937 29.8755 17.2499 29.7495C17.8062 29.6236 18.3045 29.302 18.6622 28.8383C19.0198 28.3745 19.2152 27.7965 19.2159 27.2003V11.4786C19.227 11.294 19.201 11.109 19.1396 10.9356C19.0781 10.7622 18.9826 10.6042 18.8592 10.472C18.7257 10.3501 18.5665 10.2634 18.3946 10.219C18.2227 10.1746 18.0432 10.1739 17.871 10.2169C16.7044 10.5121 15.6094 11.0589 14.6558 11.8223C14.5969 11.8665 14.5241 11.8855 14.4523 11.8753C14.3805 11.8652 14.3152 11.8266 14.2696 11.7676C14.2241 11.7086 14.2018 11.6335 14.2074 11.5578C14.213 11.4822 14.246 11.4116 14.2996 11.3606C15.3223 10.5345 16.5012 9.94595 17.7578 9.63418C18.019 9.57228 18.2905 9.57671 18.5497 9.6471C18.809 9.71748 19.0483 9.85179 19.248 10.0388C19.429 10.2257 19.5704 10.4506 19.6627 10.6987C19.7549 10.9469 19.7961 11.2126 19.7835 11.4786V27.2003C19.7826 28.0501 19.4599 28.8648 18.8864 29.4656C18.3128 30.0665 17.5351 30.4045 16.724 30.4055Z" fill="#115B76"/>
<path d="M19.5005 15.8273C19.4744 15.8273 19.4486 15.8235 19.4236 15.816C19.3877 15.8054 19.3542 15.7875 19.3249 15.7634C19.2956 15.7392 19.2712 15.7092 19.253 15.6751C19.2348 15.6411 19.2231 15.6036 19.2188 15.5648C19.2144 15.526 19.2173 15.4867 19.2275 15.4492C19.3767 14.8938 19.946 13.8735 21.0207 13.9859C21.0956 13.9937 21.1644 14.0325 21.212 14.0935C21.2597 14.1546 21.2822 14.2329 21.2747 14.3114C21.2672 14.3899 21.2302 14.462 21.1719 14.5119C21.1136 14.5618 21.0388 14.5854 20.9639 14.5775C20.0887 14.4883 19.7763 15.5993 19.772 15.6106C19.7554 15.6727 19.7198 15.7274 19.6708 15.7665C19.6218 15.8056 19.562 15.827 19.5005 15.8273Z" fill="#115B76"/>
<path d="M19.4996 17.3029C19.4379 17.3029 19.3779 17.2818 19.3287 17.2428C19.2795 17.2039 19.2437 17.1492 19.2269 17.0871C19.2141 17.041 18.9019 15.9594 18.035 16.0531C17.96 16.061 17.8852 16.0373 17.8269 15.9874C17.7686 15.9375 17.7316 15.8653 17.7241 15.7869C17.7166 15.7084 17.7391 15.6299 17.7868 15.5689C17.8344 15.5078 17.9033 15.469 17.9782 15.4612C19.0566 15.3491 19.6222 16.3694 19.7714 16.9248C19.7815 16.9623 19.7845 17.0016 19.7801 17.0404C19.7757 17.0792 19.7641 17.1167 19.7459 17.1507C19.7277 17.1848 19.7033 17.2148 19.674 17.239C19.6447 17.2631 19.6112 17.281 19.5753 17.2916C19.5507 17.299 19.5252 17.3028 19.4996 17.3029Z" fill="#115B76"/>
<path d="M23.3883 19.3131C22.9953 19.3135 22.6072 19.2231 22.2514 19.0484C21.8956 18.8736 21.581 18.6189 21.33 18.3023C21.305 18.2724 21.2861 18.2377 21.2742 18.2001C21.2623 18.1624 21.2577 18.1227 21.2606 18.0832C21.2636 18.0436 21.2741 18.0051 21.2915 17.9699C21.3089 17.9347 21.3328 17.9035 21.3619 17.8781C21.3909 17.8528 21.4246 17.8337 21.4608 17.8222C21.497 17.8106 21.535 17.8067 21.5726 17.8108C21.6103 17.8149 21.6468 17.8268 21.6799 17.8458C21.7131 17.8649 21.7423 17.8907 21.7659 17.9217C22.0434 18.2711 22.4171 18.5224 22.8359 18.6414C23.2547 18.7604 23.6983 18.7412 24.1063 18.5866C24.5144 18.4319 24.867 18.1493 25.1162 17.7772C25.3654 17.405 25.4991 16.9615 25.499 16.5069C25.499 16.4501 25.4971 16.3936 25.4931 16.3377C25.4896 16.2984 25.4936 16.2588 25.5049 16.2212C25.5162 16.1835 25.5345 16.1486 25.5588 16.1184C25.5831 16.0883 25.6129 16.0635 25.6465 16.0455C25.68 16.0276 25.7166 16.0168 25.7542 16.0138C25.7918 16.0108 25.8295 16.0157 25.8653 16.0282C25.901 16.0406 25.934 16.0604 25.9624 16.0864C25.9908 16.1124 26.0139 16.144 26.0305 16.1795C26.0471 16.2149 26.0567 16.2534 26.0589 16.2928C26.0641 16.3636 26.0666 16.435 26.0666 16.5069C26.0659 17.2509 25.7835 17.9642 25.2814 18.4903C24.7793 19.0164 24.0984 19.3123 23.3883 19.3131Z" fill="#115B76"/>
<path d="M25.0654 21.0406H25.0597C23.6788 21.0123 23.0301 19.7405 22.8799 19.0719C22.8636 18.9955 22.8766 18.9155 22.9162 18.8492C22.9558 18.7828 23.0187 18.7355 23.0914 18.7175C23.1641 18.6994 23.2406 18.7121 23.3044 18.7528C23.3682 18.7935 23.4141 18.8589 23.4322 18.9348C23.4464 18.9943 23.7889 20.4198 25.0708 20.446C25.146 20.4467 25.2179 20.4788 25.2706 20.5351C25.3233 20.5913 25.3526 20.6673 25.3518 20.7461C25.3511 20.8249 25.3205 20.9003 25.2668 20.9555C25.2131 21.0107 25.1406 21.0413 25.0654 21.0406Z" fill="#115B76"/>
<path d="M23.3349 25.0305H23.3113C23.2363 25.0239 23.1669 24.9865 23.1182 24.9263C23.0696 24.8662 23.0458 24.7882 23.052 24.7097C23.093 24.4 23.0734 24.0848 22.9946 23.7833C22.9158 23.4818 22.7793 23.2002 22.5934 22.9556C22.1448 22.4691 21.5464 22.1645 20.904 22.0958C20.8289 22.0902 20.7591 22.0535 20.7098 21.9938C20.6606 21.9342 20.6359 21.8565 20.6414 21.7779C20.6468 21.6992 20.6818 21.626 20.7387 21.5744C20.7956 21.5228 20.8698 21.497 20.9449 21.5027C21.7384 21.583 22.4772 21.9618 23.0247 22.5688C23.2602 22.8722 23.4342 23.2228 23.5362 23.599C23.6381 23.9752 23.6658 24.3692 23.6175 24.7569C23.6118 24.8314 23.5796 24.9009 23.5272 24.9515C23.4749 25.0022 23.4062 25.0304 23.3349 25.0305Z" fill="#115B76"/>
<path d="M21.5243 27.6047H21.511C21.4737 27.6029 21.4372 27.5934 21.4035 27.5768C21.3697 27.5602 21.3394 27.5368 21.3143 27.508C21.2892 27.4791 21.2698 27.4454 21.2571 27.4087C21.2445 27.372 21.2388 27.333 21.2405 27.294C21.2868 26.2469 21.9386 24.2936 24.0679 24.3724C24.1051 24.3739 24.1418 24.383 24.1757 24.3993C24.2096 24.4155 24.2401 24.4387 24.2655 24.4673C24.2908 24.4959 24.3106 24.5295 24.3236 24.5661C24.3366 24.6027 24.3425 24.6417 24.3411 24.6807C24.3398 24.7198 24.3311 24.7581 24.3155 24.7937C24.3 24.8292 24.2779 24.8611 24.2506 24.8877C24.2233 24.9143 24.1912 24.935 24.1563 24.9486C24.1213 24.9622 24.0841 24.9685 24.0469 24.967C21.9452 24.8876 21.8121 27.222 21.8075 27.3216C21.804 27.3979 21.7727 27.4698 21.72 27.5225C21.6672 27.5752 21.5972 27.6046 21.5243 27.6047Z" fill="#115B76"/>
<path d="M16.3036 19.6687C15.5935 19.668 14.9127 19.3721 14.4106 18.8462C13.9084 18.3202 13.6259 17.6071 13.625 16.8632C13.625 16.7909 13.6276 16.7193 13.6327 16.6488C13.6349 16.6094 13.6445 16.5709 13.6611 16.5354C13.6777 16.5 13.7008 16.4683 13.7292 16.4424C13.7576 16.4164 13.7906 16.3966 13.8263 16.3841C13.8621 16.3717 13.8998 16.3668 13.9374 16.3697C13.975 16.3727 14.0116 16.3835 14.0451 16.4015C14.0787 16.4194 14.1085 16.4442 14.1328 16.4744C14.1571 16.5045 14.1754 16.5395 14.1867 16.5771C14.198 16.6148 14.202 16.6544 14.1985 16.6937C14.1946 16.7496 14.1926 16.8061 14.1926 16.8632C14.1926 17.3176 14.3264 17.7611 14.5756 18.1331C14.8248 18.5051 15.1774 18.7876 15.5854 18.9422C15.9933 19.0968 16.4369 19.1159 16.8556 18.997C17.2743 18.8781 17.6479 18.627 17.9255 18.2777C17.9493 18.2477 17.9786 18.2229 18.0116 18.2047C18.0446 18.1866 18.0806 18.1754 18.1178 18.1719C18.1549 18.1683 18.1923 18.1725 18.2279 18.1841C18.2635 18.1957 18.2965 18.2145 18.3252 18.2395C18.3538 18.2645 18.3775 18.2951 18.3948 18.3297C18.4121 18.3643 18.4228 18.4021 18.4262 18.441C18.4296 18.4798 18.4256 18.519 18.4145 18.5563C18.4035 18.5936 18.3855 18.6282 18.3616 18.6582C18.1106 18.9748 17.796 19.2294 17.4403 19.4041C17.0846 19.5787 16.6965 19.6691 16.3036 19.6687Z" fill="#115B76"/>
<path d="M14.6244 21.397C14.5491 21.3978 14.4767 21.3672 14.4229 21.3119C14.3692 21.2567 14.3386 21.1814 14.3379 21.1025C14.3372 21.0237 14.3664 20.9478 14.4191 20.8915C14.4718 20.8352 14.5437 20.8032 14.619 20.8024C15.9006 20.7763 16.2434 19.3519 16.2576 19.2913C16.2756 19.2153 16.3215 19.15 16.3853 19.1093C16.4491 19.0686 16.5257 19.0559 16.5983 19.0739C16.671 19.092 16.7339 19.1393 16.7735 19.2056C16.8131 19.272 16.8262 19.352 16.8098 19.4283C16.6611 20.0954 16.0107 21.3673 14.6301 21.397H14.6244Z" fill="#115B76"/>
<path d="M14.6842 25.7842C14.6128 25.7845 14.544 25.7566 14.4914 25.7061C14.4388 25.6555 14.4063 25.5861 14.4004 25.5116C14.3517 25.1234 14.3791 24.7288 14.481 24.352C14.583 23.9753 14.7573 23.6243 14.9932 23.3205C15.5405 22.7134 16.2793 22.3347 17.0728 22.2544C17.1477 22.2498 17.2213 22.276 17.278 22.3274C17.3347 22.3788 17.3701 22.4514 17.3764 22.5297C17.3791 22.5687 17.3745 22.6078 17.3628 22.6449C17.351 22.6819 17.3325 22.7162 17.3081 22.7457C17.2837 22.7753 17.254 22.7995 17.2207 22.817C17.1874 22.8345 17.1511 22.845 17.1139 22.8478C16.4707 22.9182 15.8715 23.2234 15.4214 23.71C15.2365 23.9547 15.1009 24.236 15.0226 24.5372C14.9443 24.8383 14.925 25.1529 14.966 25.462C14.9722 25.5405 14.9483 25.6185 14.8997 25.6786C14.851 25.7388 14.7816 25.7762 14.7066 25.7828L14.6842 25.7842Z" fill="#115B76"/>
<path d="M16.4953 28.3581C16.4224 28.3581 16.3522 28.3288 16.2993 28.2761C16.2465 28.2234 16.2151 28.1514 16.2116 28.075C16.2067 27.9754 16.0697 25.6345 13.9722 25.7198C13.8969 25.7228 13.8237 25.6942 13.7685 25.6405C13.7133 25.5869 13.6807 25.5124 13.6779 25.4335C13.6751 25.3547 13.7024 25.2779 13.7536 25.2201C13.8049 25.1623 13.8759 25.1282 13.9512 25.1253C16.0776 25.0441 16.7323 26.9997 16.7786 28.0468C16.7803 28.0858 16.7746 28.1248 16.762 28.1615C16.7493 28.1982 16.7299 28.232 16.7048 28.2608C16.6796 28.2897 16.6494 28.313 16.6156 28.3296C16.5819 28.3462 16.5453 28.3557 16.5081 28.3575L16.4953 28.3581Z" fill="#115B76"/>
<path d="M19.5003 27.4975H19.4985C19.4613 27.4973 19.4244 27.4894 19.39 27.4742C19.3556 27.459 19.3245 27.4369 19.2983 27.4091C19.2721 27.3813 19.2514 27.3483 19.2373 27.3121C19.2233 27.276 19.2162 27.2372 19.2165 27.1981C19.2351 26.6151 19.0563 26.0439 18.7118 25.5857C18.3672 25.1274 17.879 24.8116 17.3336 24.694C17.2596 24.6791 17.1944 24.634 17.1523 24.5687C17.1101 24.5034 17.0944 24.4232 17.1087 24.3457C17.1229 24.2683 17.166 24.2 17.2283 24.1558C17.2907 24.1116 17.3672 24.0952 17.4411 24.1101C17.4647 24.1149 19.7996 24.6155 19.784 27.202C19.7836 27.2806 19.7535 27.3557 19.7003 27.4111C19.6471 27.4664 19.5752 27.4975 19.5003 27.4975Z" fill="#115B76"/>
</svg>
