<svg width="39" height="40" viewBox="0 0 39 40" fill="none" xmlns="http://www.w3.org/2000/svg">
<rect width="39" height="40" rx="10" fill="#E7F0EF"/>
<g clip-path="url(#clip0)">
<path d="M19.8963 29.2924C20.4042 29.2924 20.816 28.8715 20.816 28.3523C20.816 27.833 20.4042 27.4121 19.8963 27.4121C19.3883 27.4121 18.9766 27.833 18.9766 28.3523C18.9766 28.8715 19.3883 29.2924 19.8963 29.2924Z" fill="#115B76"/>
<path d="M18.3823 19.0885L16.5429 17.2082C16.3631 17.0244 16.0725 17.0244 15.8927 17.2082C15.7129 17.392 15.7129 17.689 15.8927 17.8728L17.4069 19.4208L15.8927 20.9688C15.7129 21.1526 15.7129 21.4496 15.8927 21.6334C15.9823 21.7251 16.1001 21.7712 16.2178 21.7712C16.3355 21.7712 16.4532 21.7251 16.5429 21.6334L18.3823 19.7531C18.5621 19.5693 18.5621 19.2723 18.3823 19.0885Z" fill="#115B76"/>
<path d="M23.5761 20.8308H19.8973C19.6435 20.8308 19.4375 21.0414 19.4375 21.3009C19.4375 21.5604 19.6435 21.771 19.8973 21.771H23.5761C23.83 21.771 24.036 21.5604 24.036 21.3009C24.036 21.0414 23.83 20.8308 23.5761 20.8308Z" fill="#115B76"/>
<path d="M23.5764 18.0105H20.8173C20.5634 18.0105 20.3574 18.2211 20.3574 18.4806C20.3574 18.74 20.5634 18.9506 20.8173 18.9506H23.5764C23.8302 18.9506 24.0362 18.74 24.0362 18.4806C24.0362 18.2211 23.8302 18.0105 23.5764 18.0105Z" fill="#115B76"/>
<path d="M23.5752 23.6514H16.2177C15.9638 23.6514 15.7578 23.862 15.7578 24.1214C15.7578 24.3809 15.9638 24.5915 16.2177 24.5915H23.5752C23.8291 24.5915 24.0351 24.3809 24.0351 24.1214C24.0351 23.862 23.8291 23.6514 23.5752 23.6514Z" fill="#115B76"/>
<path d="M24.4924 10.4893C24.4073 10.4893 15.2973 10.4893 15.2973 10.4893C15.2973 10.4893 15.2973 10.4893 15.2968 10.4893C14.6829 10.4893 14.1058 10.7337 13.6717 11.1774C13.2376 11.6212 12.998 12.2121 12.998 12.8396V13.7788C12.998 13.7793 12.998 13.7793 12.998 13.7798C12.998 13.7802 12.998 13.7802 12.998 13.7807V29.7623C12.998 31.0583 14.0295 32.1127 15.2973 32.1127H24.4943C25.7621 32.1127 26.7935 31.0583 26.7935 29.7623V12.8396C26.7935 11.5436 25.7621 10.4893 24.4924 10.4893ZM13.9177 12.8396C13.9177 12.4631 14.0612 12.1087 14.322 11.8426C14.5822 11.5765 14.9285 11.4294 15.2968 11.4294H19.8953C22.9551 11.4294 24.0602 11.4294 24.4938 11.3932V11.4294C25.2544 11.4294 25.8733 12.0621 25.8733 12.8396V13.3097H13.9177V12.8396ZM25.8738 29.7623C25.8738 30.5398 25.2548 31.1725 24.4943 31.1725H15.2973C14.5367 31.1725 13.9177 30.5398 13.9177 29.7623V14.2499H25.8738V29.7623Z" fill="#115B76"/>
</g>
<defs>
<clipPath id="clip0">
<rect width="21.153" height="21.6234" fill="white" transform="translate(9.32031 10.4893)"/>
</clipPath>
</defs>
</svg>
